<svg xmlns="http://www.w3.org/2000/svg" viewBox="0 0 1244.93 595.8"><defs><style>.cls-1{fill:#006614;}.cls-2,.cls-3,.cls-6{isolation:isolate;}.cls-3,.cls-6{font-size:36px;font-family:ArialMT, Arial;}.cls-3{fill:#fff;}.cls-4{letter-spacing:-0.06em;}.cls-5{letter-spacing:-0.02em;}.cls-6{fill:#faa;}.cls-7{letter-spacing:-0.07em;}.cls-8{letter-spacing:-0.04em;}</style></defs><title>Asset 4</title><g id="Layer_2" data-name="Layer 2"><g id="svg8"><g id="layer1"><g id="g1592"><g id="g1577"><path id="rect22845-2" class="cls-1" d="M108.36,0H1136.57c59.85,0,108.36,41.87,108.36,93.51V502.29c0,51.64-48.51,93.51-108.36,93.51H108.36C48.51,595.8,0,553.93,0,502.29V93.51C0,41.87,48.51,0,108.36,0Z"/><g id="text5630-0" class="cls-2"><text class="cls-3" transform="translate(158.24 70.4)">52 <tspan class="cls-4" x="50.04" y="0">V</tspan><tspan x="72.07" y="0">ector Poker Standard Playing Card Faces </tspan><tspan class="cls-4" x="746.4" y="0">V</tspan><tspan x="768.43" y="0">ersion 3.1</tspan></text><text class="cls-3" transform="translate(141.61 115.4)"><tspan xml:space="preserve">Standard Edition - Color Set - Bordered -  Plus</tspan><tspan class="cls-5" x="740.36" y="0"> </tspan><tspan x="749.71" y="0">Three Jokers</tspan></text><text class="cls-6" transform="translate(108.31 200.4)">Copyright 20<tspan class="cls-7" x="204.12" y="0">1</tspan><tspan x="221.47" y="0">1, 2019 - Chris</tspan><tspan class="cls-4" x="457.58" y="0"> </tspan><tspan x="465.59" y="0">Aguilar - conjurenation@gmail.com</tspan></text><text class="cls-3" transform="translate(138.26 285.4)">https://totalnonsense.com/open-source-vector-playing-cards/</text><text class="cls-6" transform="translate(493.41 370.4)">Licensed under:</text><text class="cls-6" transform="translate(546.12 415.4)">LGP<tspan class="cls-8" x="72.04" y="0">L</tspan><tspan x="90.72" y="0" xml:space="preserve"> 3.0</tspan></text><text class="cls-6" transform="translate(290.35 460.4)">https://ww<tspan class="cls-4" x="160.05" y="0">w</tspan><tspan x="184.06" y="0">.gnu.org/licenses/lgpl-3.0.html</tspan></text><text class="cls-3" transform="translate(316.41 545.4)">Each Card Measures (63mm x 88mm)</text></g></g></g></g></g></g></svg>