<svg xmlns="http://www.w3.org/2000/svg" xmlns:xlink="http://www.w3.org/1999/xlink" viewBox="0 0 178.58 249.45"><defs><style>.cls-1,.cls-10,.cls-4,.cls-5,.cls-7,.cls-8,.cls-9{fill:none;}.cls-2{fill:#fff;}.cls-3{fill:#0507d1;stroke:#0507d1;}.cls-4,.cls-5,.cls-6,.cls-7,.cls-8,.cls-9{stroke:#fffbfb;}.cls-4{stroke-width:0.44px;}.cls-5{stroke-width:0.22px;}.cls-6{stroke-width:0.82px;fill:url(#pattern23711-2-8);}.cls-7{stroke-width:0.45px;}.cls-7,.cls-8,.cls-9{opacity:0.99;isolation:isolate;}.cls-8{stroke-width:0.21px;}.cls-10,.cls-9{stroke-width:0.4px;}.cls-10{stroke:#fff;}</style><pattern id="pattern23711-2-8" data-name="pattern23711-2-8" width="2592" height="1728" patternTransform="matrix(0.38, 0.42, 3.2, -2.93, 1498.78, -1879.55)" patternUnits="userSpaceOnUse" viewBox="0 0 2592 1728"><rect class="cls-1" width="2592" height="1728"/></pattern></defs><title>Asset 1</title><g id="Layer_2" data-name="Layer 2"><g id="svg22446"><g id="g30870"><g id="g16045-2-9"><path id="rect13323-0-0-4" class="cls-2" d="M8.54,0H170a8.53,8.53,0,0,1,8.54,8.53V240.92a8.53,8.53,0,0,1-8.54,8.53H8.54A8.53,8.53,0,0,1,0,240.92V8.53A8.53,8.53,0,0,1,8.54,0Z"/><rect id="use15836-5-6" class="cls-3" x="12.93" y="13.61" width="152.73" height="222.23"/></g><g id="g26480"><rect id="rect26458" class="cls-4" x="16.16" y="16.84" width="146.25" height="215.76"/><g id="g26478"><rect id="rect26460" class="cls-5" x="46.48" y="47.23" width="85.62" height="154.98"/><path id="path26462" class="cls-6" d="M48.46,49.19V200.26h81.66V49.19Zm40.83,2.67a33.62,33.62,0,0,1,29.79,49.34,37.8,37.8,0,0,1,0,47A33.67,33.67,0,1,1,55.6,163.94h0a33.63,33.63,0,0,1,3.91-15.68,37.82,37.82,0,0,1,0-47A33.62,33.62,0,0,1,89.29,51.86Z"/><rect id="rect26464" class="cls-5" x="44.63" y="45.3" width="89.32" height="158.84" rx="0.9" ry="0.9"/><path id="path26466" class="cls-7" d="M59.52,148.21a37.85,37.85,0,0,1,0-46.95"/><path id="path26468" class="cls-7" d="M119.06,101.24a37.85,37.85,0,0,1,8.17,23.48h0a37.85,37.85,0,0,1-8.15,23.47"/><path id="path26470" class="cls-8" d="M60.52,146.43a36,36,0,0,1,0-43.42"/><path id="path26472" class="cls-8" d="M118.06,103a36,36,0,0,1,7.29,21.7h0a35.94,35.94,0,0,1-7.3,21.72"/><ellipse id="ellipse26474" class="cls-9" cx="89.29" cy="163.93" rx="33.7" ry="33.66"/><ellipse id="ellipse26476" class="cls-10" cx="89.29" cy="85.51" rx="33.7" ry="33.66"/></g></g></g></g></g></svg>